<mxfile host="app.diagrams.net" modified="2022-07-19T16:31:13.645Z" agent="5.0 (Windows NT 10.0; Win64; x64) AppleWebKit/537.36 (KHTML, like Gecko) Chrome/103.0.0.0 Safari/537.36" etag="pZrvk0qWyFt2p4Hgo9LT" version="20.1.1" type="github">
  <diagram id="tCL1QLLhZ3z8MtZHujLz" name="Page-1">
    <mxGraphModel dx="782" dy="460" grid="1" gridSize="10" guides="1" tooltips="1" connect="1" arrows="1" fold="1" page="1" pageScale="1" pageWidth="850" pageHeight="1100" math="0" shadow="0">
      <root>
        <mxCell id="0" />
        <mxCell id="1" parent="0" />
        <mxCell id="rGjGiGlnS9OAfujGCCZ5-25" value="" style="rounded=0;whiteSpace=wrap;html=1;" vertex="1" parent="1">
          <mxGeometry x="310" y="8" width="450" height="370" as="geometry" />
        </mxCell>
        <mxCell id="rGjGiGlnS9OAfujGCCZ5-19" value="" style="ellipse;whiteSpace=wrap;html=1;fillColor=#3333FF;" vertex="1" parent="1">
          <mxGeometry x="510" y="230" width="30" height="30" as="geometry" />
        </mxCell>
        <mxCell id="rGjGiGlnS9OAfujGCCZ5-24" value="" style="shape=parallelogram;perimeter=parallelogramPerimeter;whiteSpace=wrap;html=1;fixedSize=1;size=53.27999999999997;rotation=-210;fillColor=#fff2cc;strokeColor=#d6b656;" vertex="1" parent="1">
          <mxGeometry x="301.53" y="147.48" width="394.33" height="108.95" as="geometry" />
        </mxCell>
        <mxCell id="rGjGiGlnS9OAfujGCCZ5-4" value="" style="ellipse;whiteSpace=wrap;html=1;fillColor=#FF0080;" vertex="1" parent="1">
          <mxGeometry x="440" y="190" width="20" height="20" as="geometry" />
        </mxCell>
        <mxCell id="rGjGiGlnS9OAfujGCCZ5-5" value="" style="ellipse;whiteSpace=wrap;html=1;fillColor=#FF0080;" vertex="1" parent="1">
          <mxGeometry x="400" y="220" width="35" height="30" as="geometry" />
        </mxCell>
        <mxCell id="rGjGiGlnS9OAfujGCCZ5-6" value="" style="ellipse;whiteSpace=wrap;html=1;fillColor=#FF0080;" vertex="1" parent="1">
          <mxGeometry x="460" y="170" width="20" height="20" as="geometry" />
        </mxCell>
        <mxCell id="rGjGiGlnS9OAfujGCCZ5-7" value="" style="ellipse;whiteSpace=wrap;html=1;fillColor=#FF0080;" vertex="1" parent="1">
          <mxGeometry x="500" y="180" width="20" height="20" as="geometry" />
        </mxCell>
        <mxCell id="rGjGiGlnS9OAfujGCCZ5-8" value="" style="ellipse;whiteSpace=wrap;html=1;fillColor=#FF0080;" vertex="1" parent="1">
          <mxGeometry x="490" y="150" width="20" height="20" as="geometry" />
        </mxCell>
        <mxCell id="rGjGiGlnS9OAfujGCCZ5-9" value="" style="ellipse;whiteSpace=wrap;html=1;fillColor=#FF0080;" vertex="1" parent="1">
          <mxGeometry x="440" y="150" width="20" height="20" as="geometry" />
        </mxCell>
        <mxCell id="rGjGiGlnS9OAfujGCCZ5-10" value="" style="ellipse;whiteSpace=wrap;html=1;fillColor=#FF0080;" vertex="1" parent="1">
          <mxGeometry x="480" y="140" width="10" height="10" as="geometry" />
        </mxCell>
        <mxCell id="rGjGiGlnS9OAfujGCCZ5-11" value="" style="ellipse;whiteSpace=wrap;html=1;fillColor=#FF0080;" vertex="1" parent="1">
          <mxGeometry x="530" y="130" width="10" height="10" as="geometry" />
        </mxCell>
        <mxCell id="rGjGiGlnS9OAfujGCCZ5-12" value="" style="ellipse;whiteSpace=wrap;html=1;fillColor=#FF0080;" vertex="1" parent="1">
          <mxGeometry x="600" y="140" width="10" height="10" as="geometry" />
        </mxCell>
        <mxCell id="rGjGiGlnS9OAfujGCCZ5-13" value="" style="ellipse;whiteSpace=wrap;html=1;fillColor=#3333FF;" vertex="1" parent="1">
          <mxGeometry x="540" y="250" width="30" height="30" as="geometry" />
        </mxCell>
        <mxCell id="rGjGiGlnS9OAfujGCCZ5-14" value="" style="ellipse;whiteSpace=wrap;html=1;fillColor=#3333FF;" vertex="1" parent="1">
          <mxGeometry x="580" y="230" width="20" height="20" as="geometry" />
        </mxCell>
        <mxCell id="rGjGiGlnS9OAfujGCCZ5-15" value="" style="ellipse;whiteSpace=wrap;html=1;fillColor=#3333FF;" vertex="1" parent="1">
          <mxGeometry x="620" y="230" width="20" height="20" as="geometry" />
        </mxCell>
        <mxCell id="rGjGiGlnS9OAfujGCCZ5-16" value="" style="ellipse;whiteSpace=wrap;html=1;fillColor=#3333FF;" vertex="1" parent="1">
          <mxGeometry x="590" y="270" width="20" height="20" as="geometry" />
        </mxCell>
        <mxCell id="rGjGiGlnS9OAfujGCCZ5-17" value="" style="ellipse;whiteSpace=wrap;html=1;fillColor=#3333FF;" vertex="1" parent="1">
          <mxGeometry x="640" y="270" width="10" height="10" as="geometry" />
        </mxCell>
        <mxCell id="rGjGiGlnS9OAfujGCCZ5-18" value="" style="ellipse;whiteSpace=wrap;html=1;fillColor=#3333FF;" vertex="1" parent="1">
          <mxGeometry x="610" y="290" width="20" height="20" as="geometry" />
        </mxCell>
        <mxCell id="rGjGiGlnS9OAfujGCCZ5-20" value="" style="ellipse;whiteSpace=wrap;html=1;fillColor=#3333FF;" vertex="1" parent="1">
          <mxGeometry x="670" y="210" width="10" height="10" as="geometry" />
        </mxCell>
        <mxCell id="rGjGiGlnS9OAfujGCCZ5-1" value="" style="endArrow=classic;html=1;rounded=0;" edge="1" parent="1">
          <mxGeometry width="50" height="50" relative="1" as="geometry">
            <mxPoint x="380" y="350" as="sourcePoint" />
            <mxPoint x="380" y="10" as="targetPoint" />
          </mxGeometry>
        </mxCell>
        <mxCell id="rGjGiGlnS9OAfujGCCZ5-2" value="" style="endArrow=classic;html=1;rounded=0;" edge="1" parent="1">
          <mxGeometry width="50" height="50" relative="1" as="geometry">
            <mxPoint x="330" y="320" as="sourcePoint" />
            <mxPoint x="750" y="320" as="targetPoint" />
          </mxGeometry>
        </mxCell>
        <mxCell id="rGjGiGlnS9OAfujGCCZ5-3" value="" style="endArrow=classic;html=1;rounded=0;" edge="1" parent="1">
          <mxGeometry width="50" height="50" relative="1" as="geometry">
            <mxPoint x="340" y="370" as="sourcePoint" />
            <mxPoint x="550" y="120" as="targetPoint" />
          </mxGeometry>
        </mxCell>
        <mxCell id="rGjGiGlnS9OAfujGCCZ5-27" value="Y" style="text;html=1;resizable=0;autosize=1;align=center;verticalAlign=middle;points=[];fillColor=none;strokeColor=none;rounded=0;" vertex="1" parent="1">
          <mxGeometry x="340" y="40" width="30" height="30" as="geometry" />
        </mxCell>
        <mxCell id="rGjGiGlnS9OAfujGCCZ5-28" value="Z" style="text;html=1;resizable=0;autosize=1;align=center;verticalAlign=middle;points=[];fillColor=none;strokeColor=none;rounded=0;" vertex="1" parent="1">
          <mxGeometry x="520" y="140" width="30" height="30" as="geometry" />
        </mxCell>
        <mxCell id="rGjGiGlnS9OAfujGCCZ5-29" value="X" style="text;html=1;resizable=0;autosize=1;align=center;verticalAlign=middle;points=[];fillColor=none;strokeColor=none;rounded=0;" vertex="1" parent="1">
          <mxGeometry x="670" y="330" width="30" height="30" as="geometry" />
        </mxCell>
        <mxCell id="rGjGiGlnS9OAfujGCCZ5-30" value="" style="endArrow=classic;html=1;rounded=0;exitX=0.444;exitY=-0.111;exitDx=0;exitDy=0;exitPerimeter=0;entryX=0.096;entryY=-0.002;entryDx=0;entryDy=0;entryPerimeter=0;" edge="1" parent="1">
          <mxGeometry width="50" height="50" relative="1" as="geometry">
            <mxPoint x="354.31999999999994" y="43.670000000000016" as="sourcePoint" />
            <mxPoint x="354.20000000000005" y="14.259999999999991" as="targetPoint" />
          </mxGeometry>
        </mxCell>
        <mxCell id="rGjGiGlnS9OAfujGCCZ5-31" value="" style="endArrow=classic;html=1;rounded=0;exitX=1.089;exitY=0.6;exitDx=0;exitDy=0;exitPerimeter=0;" edge="1" parent="1">
          <mxGeometry width="50" height="50" relative="1" as="geometry">
            <mxPoint x="702.6700000000001" y="345" as="sourcePoint" />
            <mxPoint x="740" y="345" as="targetPoint" />
          </mxGeometry>
        </mxCell>
        <mxCell id="rGjGiGlnS9OAfujGCCZ5-32" value="" style="endArrow=classic;html=1;rounded=0;" edge="1" parent="1">
          <mxGeometry width="50" height="50" relative="1" as="geometry">
            <mxPoint x="542" y="148" as="sourcePoint" />
            <mxPoint x="560" y="130" as="targetPoint" />
          </mxGeometry>
        </mxCell>
      </root>
    </mxGraphModel>
  </diagram>
</mxfile>
